# File created by Blade
# Date/Time:  Thu Jan 22 19:29:47 2015
#---------------------------------------------------------
:version 1.10
:name HOM
:units
  mass 1.0
  length 1.000000
  angle deg
:documentation
     Acclaim Skeleton File
:root
   axis xyz
   order TX TY TZ RX RY RZ
   position 0.000000 0.000000 0.000000
   orientation 0 0 0
:bonedata
   begin
      id 1
      name RightUpLeg_dum
      direction -1.000000 0.000000 0.000000
      length 4.478084
      axis 0.0 0.0 0.0 xyz
   end
   begin
      id 2
      name LeftUpLeg_dum
      direction 1.000000 0.000000 0.000000
      length 4.478084
      axis 0.0 0.0 0.0 xyz
   end
   begin
      id 3
      name Spine_dum
      direction 0.000000 1.000000 0.000000
      length 6.068208
      axis 0.0 0.0 0.0 xyz
   end
   begin
      id 4
      name RightUpLeg
      direction 0.000000 -1.000000 0.000000
      length 16.405774
      axis 0.0 0.0 0.0 xyz
      dof rx ry rz
   end
   begin
      id 5
      name RightLeg
      direction 0.000000 -1.000000 0.000000
      length 14.644143
      axis 0.0 0.0 0.0 xyz
      dof rx ry rz
   end
   begin
      id 6
      name RightFoot
      direction 0.000000 -0.258819 0.965926
      length 5.806150
      axis 15.0 0.0 0.0 xyz
      dof rx ry rz
   end
   begin
      id 7
      name RightToeBase
      direction 0.000000 0.000000 1.000000
      length 2.952750
      axis 0.0 0.0 0.0 xyz
      dof rx ry rz
   end
   begin
      id 8
      name LeftUpLeg
      direction 0.000000 -1.000000 0.000000
      length 16.405774
      axis 0.0 0.0 0.0 xyz
      dof rx ry rz
   end
   begin
      id 9
      name LeftLeg
      direction 0.000000 -1.000000 0.000000
      length 14.644143
      axis 0.0 0.0 0.0 xyz
      dof rx ry rz
   end
   begin
      id 10
      name LeftFoot
      direction 0.000000 -0.258819 0.965926
      length 5.806150
      axis 15.0 0.0 0.0 xyz
      dof rx ry rz
   end
   begin
      id 11
      name LeftToeBase
      direction 0.000000 0.000000 1.000000
      length 2.952750
      axis 0.0 0.0 0.0 xyz
      dof rx ry rz
   end
   begin
      id 12
      name Spine
      direction 0.000000 1.000000 0.000000
      length 0.000000
      axis 0.0 0.0 0.0 xyz
      dof rx ry rz
   end
   begin
      id 13
      name Spine_dum1
      direction 0.000000 1.000000 0.000000
      length 10.013923
      axis 0.0 0.0 0.0 xyz
   end
   begin
      id 14
      name Spine_dum2
      direction 0.000000 1.000000 0.000000
      length 10.013923
      axis 0.0 0.0 0.0 xyz
   end
   begin
      id 15
      name Spine_dum3
      direction 0.000000 1.000000 0.000000
      length 15.777476
      axis 0.0 0.0 0.0 xyz
   end
   begin
      id 16
      name RightShoulder
      direction -1.000000 0.000000 0.000000
      length 7.190220
      axis 0.0 0.0 90.0 xyz
      dof rx ry rz
   end
   begin
      id 17
      name RightArm
      direction -1.000000 0.000000 0.000000
      length 10.177469
      axis 0.0 0.0 90.0 xyz
      dof rx ry rz
   end
   begin
      id 18
      name RightForeArm
      direction -1.000000 0.000000 0.000000
      length 8.392114
      axis 0.0 0.0 90.0 xyz
      dof ry rz rx
   end
   begin
      id 19
      name RightHand
      direction -1.000000 0.000000 0.000000
      length 0.000000
      axis 0.0 0.0 90.0 xyz
      dof rx ry rz
   end
   begin
      id 20
      name RightHand_dum1
      direction -1.000000 0.000000 0.000000
      length 3.937000
      axis 0.0 0.0 90.0 xyz
   end
   begin
      id 21
      name RightHand_dum2
      direction 0.000000 0.000000 0.000000
      length 0.000000
      axis 0.0 0.0 90.0 xyz
   end
   begin
      id 22
      name RightHandThumb1
      direction 0.000000 0.000000 1.000000
      length 3.937000
      axis 0.0 0.0 90.0 xyz
      dof rx rz ry
   end
   begin
      id 23
      name LeftShoulder
      direction 1.000000 0.000000 0.000000
      length 7.190220
      axis 0.0 0.0 -90.0 xyz
      dof rx ry rz
   end
   begin
      id 24
      name LeftArm
      direction 1.000000 0.000000 0.000000
      length 10.177469
      axis 0.0 0.0 -90.0 xyz
      dof rx ry rz
   end
   begin
      id 25
      name LeftForeArm
      direction 1.000000 0.000000 0.000000
      length 8.392114
      axis 0.0 0.0 -90.0 xyz
      dof ry rz rx
   end
   begin
      id 26
      name LeftHand
      direction 1.000000 0.000000 0.000000
      length 0.000000
      axis 0.0 0.0 -90.0 xyz
      dof rx ry rz
   end
   begin
      id 27
      name LeftHand_dum1
      direction 1.000000 0.000000 0.000000
      length 3.937000
      axis 0.0 0.0 -90.0 xyz
   end
   begin
      id 28
      name LeftHand_dum2
      direction 0.000000 0.000000 0.000000
      length 0.000000
      axis 0.0 0.0 -90.0 xyz
   end
   begin
      id 29
      name LeftHandThumb1
      direction 0.000000 0.000000 1.000000
      length 3.937000
      axis 0.0 0.0 -90.0 xyz
      dof rx rz ry
   end
   begin
      id 30
      name Head
      direction 0.000000 1.000000 0.000000
      length 4.527550
      axis 0.0 0.0 0.0 xyz
      dof rx ry rz
   end
:hierarchy
   begin
      root RightUpLeg_dum LeftUpLeg_dum Spine_dum
      RightUpLeg_dum RightUpLeg
      LeftUpLeg_dum LeftUpLeg
      Spine_dum Spine
      RightUpLeg RightLeg
      RightLeg RightFoot
      RightFoot RightToeBase
      LeftUpLeg LeftLeg
      LeftLeg LeftFoot
      LeftFoot LeftToeBase
      Spine Spine_dum1 Spine_dum2 Spine_dum3
      Spine_dum1 RightShoulder
      Spine_dum2 LeftShoulder
      Spine_dum3 Head
      RightShoulder RightArm
      RightArm RightForeArm
      RightForeArm RightHand
      RightHand RightHand_dum1 RightHand_dum2
      RightHand_dum2 RightHandThumb1
      LeftShoulder LeftArm
      LeftArm LeftForeArm
      LeftForeArm LeftHand
      LeftHand LeftHand_dum1 LeftHand_dum2
      LeftHand_dum2 LeftHandThumb1
   end

# File created by Blade
# Date/Time:  Thu Jan 22 19:29:39 2015
# Frame Rate: 120.000 fps
#------------------------------------------------------
:FULLY-SPECIFIED
:DEGREES
1
root -2.275050 33.159590 0.506779 7.711085 -3.814828 3.122151
RightUpLeg -2.367573 -5.955954 -1.844504
RightLeg 0.404773 -0.000000 -0.000000
RightFoot -11.603824 -5.092973 3.685400
RightToeBase 4.983475 -0.000000 -0.000000
LeftUpLeg -2.642614 2.400279 -0.299162
LeftLeg 2.001798 -0.000000 -0.000000
LeftFoot -10.447731 2.058757 -16.424745
LeftToeBase 8.158934 -0.000000 -0.000000
Spine -10.214484 -2.834742 -2.126829
RightShoulder -18.762066 -14.643939 -25.586978
RightArm 19.410389 32.013275 43.862315
RightForeArm -8.142821 -0.000000 11.968518
RightHand 8.994798 -0.000000 4.930573
RightHandThumb1 -24.326973 -0.000000 -32.862282
LeftShoulder -24.428150 7.646412 28.205694
LeftArm 17.997128 -31.288850 -42.017934
LeftForeArm 1.762289 -0.000000 5.231560
LeftHand -3.900421 -0.000000 6.762879
LeftHandThumb1 -26.253704 0.000000 33.147579
Head -0.977996 5.493620 -0.244889
2
root -2.276799 33.159330 0.508969 7.708949 -3.817071 3.118290
RightUpLeg -2.358180 -5.967439 -1.838786
RightLeg 0.395507 -0.000000 -0.000000
RightFoot -11.600477 -5.080050 3.660075
RightToeBase 5.000907 -0.000000 -0.000000
LeftUpLeg -2.637921 2.404050 -0.292932
LeftLeg 2.006685 -0.000000 -0.000000
LeftFoot -10.458037 2.050568 -16.434382
LeftToeBase 8.151215 -0.000000 -0.000000
Spine -10.218480 -2.816353 -2.131064
RightShoulder -18.779956 -14.659329 -25.572433
RightArm 19.443662 32.014717 43.879248
RightForeArm -8.163254 -0.000000 11.969891
RightHand 8.965968 -0.000000 4.946787
RightHandThumb1 -24.326973 -0.000000 -32.862282
LeftShoulder -24.429457 7.643759 28.208512
LeftArm 17.973479 -31.264164 -41.983039
LeftForeArm 1.726442 -0.000000 5.243154
LeftHand -3.887290 -0.000000 6.754689
LeftHandThumb1 -26.253704 0.000000 33.147579
Head -0.998762 5.478473 -0.207597
3
root -2.278039 33.159024 0.510774 7.705034 -3.816556 3.114001
RightUpLeg -2.351059 -5.971594 -1.834176
RightLeg 0.395810 -0.000000 -0.000000
RightFoot -11.604305 -5.066962 3.699556
RightToeBase 4.967627 -0.000000 -0.000000
LeftUpLeg -2.636776 2.402795 -0.287756
LeftLeg 2.019117 -0.000000 -0.000000
LeftFoot -10.464868 2.066559 -16.404321
LeftToeBase 8.127021 -0.000000 -0.000000
Spine -10.218919 -2.804077 -2.129883
RightShoulder -18.776069 -14.659881 -25.569764
RightArm 19.443320 31.999395 43.879403
RightForeArm -8.160655 -0.000000 11.970182
RightHand 8.941391 -0.000000 4.921538
RightHandThumb1 -24.326973 -0.000000 -32.862282
LeftShoulder -24.443047 7.652532 28.200705
LeftArm 17.998263 -31.319350 -41.987660
LeftForeArm 1.797132 -0.000000 5.223644
LeftHand -3.897697 -0.000000 6.672337
LeftHandThumb1 -26.253704 0.000000 33.147579
Head -1.013930 5.517698 -0.159309
4
root -2.278948 33.158928 0.512523 7.700177 -3.819804 3.115237
RightUpLeg -2.341557 -5.960583 -1.835400
RightLeg 0.391935 -0.000000 -0.000000
RightFoot -11.597415 -5.077409 3.671759
RightToeBase 4.946912 -0.000000 -0.000000
LeftUpLeg -2.633031 2.393590 -0.287218
LeftLeg 2.029659 -0.000000 -0.000000
LeftFoot -10.479865 2.069339 -16.439517
LeftToeBase 8.165022 -0.000000 -0.000000
Spine -10.220831 -2.790335 -2.142219
RightShoulder -18.763963 -14.647954 -25.561422
RightArm 19.422453 31.994915 43.871662
RightForeArm -8.146628 -0.000000 11.972523
RightHand 8.925068 -0.000000 4.930203
RightHandThumb1 -24.326973 -0.000000 -32.862282
LeftShoulder -24.465801 7.665073 28.207964
LeftArm 18.029627 -31.324948 -41.990875
LeftForeArm 1.801655 -0.000000 5.200802
LeftHand -3.869157 -0.000000 6.619393
LeftHandThumb1 -26.253704 0.000000 33.147579
Head -1.017854 5.531090 -0.120846
5
root -2.281534 33.158478 0.514467 7.699065 -3.815562 3.110760
RightUpLeg -2.328321 -5.971919 -1.827576
RightLeg 0.376859 -0.000000 -0.000000
RightFoot -11.593750 -5.062724 3.681476
RightToeBase 4.974782 -0.000000 -0.000000
LeftUpLeg -2.630074 2.382832 -0.277762
LeftLeg 2.034363 -0.000000 -0.000000
LeftFoot -10.488348 2.075638 -16.445222
LeftToeBase 8.167869 -0.000000 -0.000000
Spine -10.230086 -2.767881 -2.149566
RightShoulder -18.770918 -14.649179 -25.558997
RightArm 19.419460 31.988403 43.892330
RightForeArm -8.141550 -0.000000 11.976905
RightHand 8.846791 0.000000 4.933855
RightHandThumb1 -24.326973 -0.000000 -32.862282
LeftShoulder -24.453619 7.660810 28.217594
LeftArm 18.013868 -31.270413 -41.940584
LeftForeArm 1.743292 -0.000000 5.179084
LeftHand -3.872656 0.000000 6.573160
LeftHandThumb1 -26.253704 0.000000 33.147579
Head -1.016043 5.511356 -0.089961
6
root -2.283226 33.158138 0.517226 7.686841 -3.817314 3.113961
RightUpLeg -2.309837 -5.970688 -1.829382
RightLeg 0.373402 -0.000000 -0.000000
RightFoot -11.600804 -5.067858 3.690127
RightToeBase 5.018199 -0.000000 -0.000000
LeftUpLeg -2.613328 2.375882 -0.278275
LeftLeg 2.034377 -0.000000 -0.000000
LeftFoot -10.494517 2.084168 -16.443341
LeftToeBase 8.180371 -0.000000 -0.000000
Spine -10.226944 -2.748366 -2.166215
RightShoulder -18.777168 -14.666812 -25.535248
RightArm 19.437698 31.976214 43.898228
RightForeArm -8.087894 -0.000000 11.964838
RightHand 8.814602 -0.000000 4.887235
RightHandThumb1 -24.326973 -0.000000 -32.862282
LeftShoulder -24.445515 7.663426 28.216918
LeftArm 18.012425 -31.240514 -41.888886
LeftForeArm 1.701155 -0.000000 5.171053
LeftHand -3.905199 -0.000000 6.489133
LeftHandThumb1 -26.253704 0.000000 33.147579
Head -1.013660 5.495394 -0.049119
